<?xml version="1.0" encoding="UTF-8"?>
<!DOCTYPE svg PUBLIC "-//W3C//DTD SVG 1.1//EN" "http://www.w3.org/Graphics/SVG/1.1/DTD/svg11.dtd">
<!-- Creator: CorelDRAW -->
<svg xmlns="http://www.w3.org/2000/svg" xml:space="preserve" width="200mm" height="198.899mm" style="shape-rendering:geometricPrecision; text-rendering:geometricPrecision; image-rendering:optimizeQuality; fill-rule:evenodd; clip-rule:evenodd"
viewBox="0 0 200 198.899"
 xmlns:xlink="http://www.w3.org/1999/xlink">
 <defs>
  <style type="text/css">
   <![CDATA[
    .fil1 {fill:#005197}
    .fil0 {fill:#005197;fill-rule:nonzero}
   ]]>
  </style>
 </defs>
 <g id="图层_x0020_1">
  <metadata id="CorelCorpID_0Corel-Layer"/>
  <g id="_181968736">
   <path id="_181968088" class="fil0" d="M115.308 179.43c0.5315,-0.1719 6.0463,-1.0692 5.9951,-0.2625 -0.0135,0.213 -0.1865,1.3646 -0.4321,1.8697 -0.167,0.3435 -0.3275,0.1592 -0.6394,0.1409 -1.8663,-0.1095 -7.8108,1.5629 -9.2846,3.2204 -1.0161,1.1429 -2.3876,-1.5241 -1.1313,-1.9261 2.0354,-0.6512 3.7445,-1.8563 4.5447,-2.428 0.0088,-0.2006 1.9387,-4.3847 0.3793,-3.3118 -2.6385,1.8153 -3.1496,0.9661 -2.7982,0.2243 0.2031,-0.4285 1.0791,-1.0135 1.3485,-1.2174 3.1409,-2.3775 4.7875,-1.3044 4.2839,0.3924 -0.4881,1.6446 -2.3971,3.3406 -2.2659,3.2981z"/>
   <path id="_181969648" class="fil0" d="M43.4548 154.22c0.7923,-0.2814 1.7813,0.5196 2.8448,0.9434 0.7915,0.3154 1.3596,0.6754 1.5925,0.6276 0.5202,-0.1068 1.0896,-0.3467 1.6892,-0.8036 0.6931,-0.2805 2.3844,-1.6947 3.0374,-2.164 0.1489,-0.0781 0.2638,-0.1013 0.3367,-0.1178 1.2588,-0.2859 1.6759,0.126 1.2513,1.2357 -0.2251,0.2279 -0.2075,0.4346 -0.7869,0.6572 -1.1168,0.4291 -1.8405,0.8629 -2.3456,1.3357 -0.5067,0.4742 -0.545,0.85 -0.1055,1.2418 0.3588,0.3197 0.809,0.7303 1.15,0.9137 0.3982,0.5085 0.1408,1.7876 -0.4441,1.5634 -1.1654,-0.4467 -2.4567,-1.4028 -3.2823,-1.8197 -0.1061,-0.0536 -0.8616,0.2542 -1.275,0.4447 -0.0771,0.0005 -0.1132,0.0032 -0.1132,0.0032 -0.1514,0.0756 -0.3748,0.1903 -0.6775,0.3416 -1.1868,0.6052 -2.3729,1.1519 -3.7027,1.4125 -1.9034,0.3729 -6.3153,0.133 -7.3167,-0.8712 0.6408,-0.0426 2.1268,-0.2616 3.4065,-0.2555 2.2198,0.0104 3.9944,-0.6147 5.0132,-0.9466 1.0538,-0.3433 1.6025,-0.4922 1.1381,-1.2138 -0.114,-0.1126 -0.7081,-0.4292 -0.9366,-0.6547 -0.4582,-0.4526 -1.5247,-1.5003 -0.4736,-1.8736zm-0.5734 13.1627c-0.2575,-3.1232 0.7683,-3.4789 0.9773,-7.2145 0,0 0.6429,-0.4528 0.8701,0.0441 -0.5616,1.97 0.3345,6.932 0.7043,8.5811 0.2085,0.93 -0.49,0.4333 -0.9935,0.0505 -0.3641,-0.2769 -0.7552,-0.5729 -1.0509,-0.7674 -0.3619,-0.2379 -0.4671,-0.2072 -0.5073,-0.6938z"/>
   <path id="_181969480" class="fil0" d="M131.656 173.267c-0.0842,-0.7758 0.8512,-1.4971 1.462,-2.3667 0.4547,-0.6471 0.9016,-1.0829 0.9083,-1.3036 0.0152,-0.4926 -0.0793,-1.0582 -0.3633,-1.6977 -0.1048,-0.6862 -1.0192,-2.5168 -1.3029,-3.2071 -0.0386,-0.1513 -0.0349,-0.2599 -0.0342,-0.3292 0.0118,-1.1982 0.4731,-1.4865 1.3842,-0.8651 0.1576,0.2521 0.3481,0.2806 0.4249,0.8516 0.1479,1.1005 0.3845,1.8471 0.7031,2.4047 0.3195,0.5593 0.6508,0.6744 1.0988,0.3615 0.3657,-0.2553 0.8331,-0.5739 1.0718,-0.8426 0.5447,-0.2505 1.6445,0.2563 1.3166,0.7365 -0.6533,0.9565 -1.7937,1.9176 -2.3472,2.5738 -0.0711,0.0844 0.0447,0.8326 0.1282,1.2467 -0.0161,0.0698 -0.0215,0.103 -0.0215,0.103 0.0359,0.1528 0.0915,0.3792 0.1633,0.685 0.292,1.2016 0.5313,2.39 0.4814,3.6468 -0.0714,1.7988 -1.2342,5.7316 -2.3558,6.4206 0.0989,-0.5878 0.2198,-1.9767 0.4997,-3.1311 0.4855,-2.0023 0.3016,-3.7391 0.2204,-4.7303 -0.0841,-1.0253 -0.1009,-1.5527 -0.8522,-1.288 -0.126,0.0788 -0.5393,0.5475 -0.7921,0.7054 -0.5069,0.3168 -1.6818,1.0551 -1.7935,0.0258zm11.8027 2.8946c-2.8756,-0.4372 -2.9769,-1.4398 -6.3056,-2.4298 0,0 -0.271,-0.6776 0.2265,-0.7762 1.6585,0.9296 7.2608,0.7607 8.8293,0.7804 0.8846,0.0111 -0.3663,1.5319 -0.796,1.932 -0.6746,0.6279 -1.875,0.5056 -1.9542,0.4936z"/>
   <path id="_181969144" class="fil0" d="M155.513 157.098c0.7613,-1.1248 1.651,-1.6024 2.3786,-1.1822 0.2029,0.2501 0.2617,0.6244 0.2256,1.2991 -0.0459,0.8542 0.3891,2.9158 1.796,1.7753l0.5919 -0.48c0.2076,-0.1681 1.5616,-2.3252 2.5819,-1.6106 0.9427,0.6609 -2.3739,3.2425 -2.4213,3.3479 -0.0662,0.1447 0.4216,0.4799 0.5233,0.6052 3.7701,7.8481 -4.5298,5.1047 -0.7293,4.4289 1.4285,-0.969 0.0309,-3.3143 -0.5502,-3.8847 -2.1225,2.3464 -2.9157,4.2395 -3.4682,4.202 -0.7106,-0.0484 0.1087,-2.234 1.9375,-4.9464 -2.4336,-0.8467 -0.8976,-2.5419 -1.886,-2.4282 -0.1254,0.0144 -2.1866,0.6564 -0.9798,-1.1263zm-2.0463 7.3583c-1.0141,1.0677 -2.5156,-1.1823 -2.5383,-2.1399 -0.0317,-1.3381 0.405,-1.2189 0.8567,-0.8704 0.6278,0.4841 2.4109,2.2426 1.6816,3.0103zm-0.9788 -3.9828c-0.749,-0.3901 -0.51,-1.5499 -0.1716,-2.2824 0.8719,-1.8865 1.3799,-3.6247 2.019,-4.4177 1.2498,-1.5514 3.2657,-3.5127 4.1165,-2.6036 0.6229,0.6653 0.6789,2.1399 0.3031,2.6563 -0.3382,0.4645 -0.7097,0.5737 -1.0429,0.383 0,-0.5608 0.3928,-2.2349 -0.4811,-1.7418 -2.2322,1.2592 -2.7607,3.5925 -3.7783,5.9915 -0.3865,0.9113 -0.3561,1.5836 -0.9647,2.0147zm-1.8639 -3.8484c0.4277,0.8366 0.2837,1.2914 -0.1427,1.6149 -1.1864,0.9002 -3.2333,-2.5765 -2.6252,-3.7605 0.1752,-0.3409 2.4507,1.7276 2.7679,2.1456zm0.1309 -2.0661c-1.4236,-0.1388 -3.4226,-3.7818 0.4802,-2.2548 1.6451,0.0996 -0.422,-2.9182 0.2156,-4.4549 0.2919,-0.7035 1.4441,-0.6906 1.7747,-0.3035 0.9778,1.146 0.3687,7.2902 -2.4705,7.0132z"/>
   <path id="_181969048" class="fil0" d="M66.1825 181.046c0.4951,-0.6342 1.2772,-3.0662 1.9626,-3.5887 0.4342,-0.3311 1.4073,-0.324 1.9996,-0.3256 0.2251,-0.5306 -0.0493,-0.4656 -0.0738,-0.789 -0.2481,-0.1694 -0.7493,-0.3178 -1.5009,-0.4519 0.202,-0.4762 0.8331,-1.5113 1.0134,-1.9365 0.9277,-0.0174 3.3914,-0.8127 1.49,-1.8604 0.4276,-2.0136 -0.2674,-2.3405 -1.3405,-0.0309 -1.2972,-0.0438 -0.6695,-0.0178 -1.9602,-0.1586 2.3264,-1.6205 2.8241,-3.3649 4.9293,-2.8212 1.2758,0.3295 2.3524,0.2128 2.6688,-0.7847 -0.0721,-0.5925 -0.4411,-0.905 -1.0963,-0.8382 -0.4148,0.0423 -1.0316,-1.4382 -0.7354,-1.7489 0.3851,-0.4037 0.3626,-0.7251 -0.0721,-0.9736 -0.3188,-0.384 -0.8247,0.3032 -2.2212,2.0323 -0.8734,1.0813 -4.4832,-1.5468 -4.1936,1.8673 4.3275,0.2526 -0.1128,0.7378 -0.9436,2.6972 -0.0899,-0.0741 -2.8299,3.212 1.8715,2.4093 -0.0899,0.4635 -0.7025,1.8205 -0.8828,2.2457 -1.9517,-0.1024 -0.6644,0.0257 -3.2502,-0.1662 -0.4996,0.6671 -0.3305,1.1902 0.5496,1.3648 0.743,0.1474 1.3649,0.2481 2.0275,0.2074 -0.2005,0.4729 -1.1283,2.9733 -1.3433,2.8824 -0.797,-0.3369 -4.0363,-3.9944 -4.3988,-4.0605 -0.277,-1.2451 -0.0422,-1.6796 0.6756,-2.8686 0.7617,-1.2618 1.7304,-1.422 2.1636,-1.5513 0.5669,-0.5742 -0.4864,-1.722 -1.0783,-1.973 -1.2175,1.1035 -1.5137,3.2713 -2.6865,3.7537 -0.9642,0.3965 -0.1968,1.9215 -0.3879,2.3829 -0.3893,0.9402 -1.2401,-0.2913 -1.6859,0.834 -0.732,1.8478 1.8536,-0.3696 3.5519,1.7629 1.2348,1.5505 0.9324,1.2236 6.467,5.5294 1.4063,1.0939 3.125,0.1326 2.6591,-0.708 -0.9367,-0.5817 -2.8249,-1.8791 -4.1782,-2.3335z"/>
   <path id="_181966648" class="fil1" d="M86.5372 125.884l-2.186 0 0 -8.9031c-0.8171,0.815 -1.7607,1.4116 -2.8307,1.7903l0 -2.1433c0.6064,-0.218 1.2354,-0.608 1.8904,-1.1706 0.6518,-0.5651 1.1027,-1.2136 1.3588,-1.9481l1.7675 0 0 12.3748zm19.6191 -94.3177c32.4548,2.9949 58.3289,28.2504 61.6782,60.0824l-12.5991 0c-3.2386,-25.048 -23.5796,-44.8438 -49.1471,-47.711 -0.013,3.9679 2.1798,7.9693 6.1186,10.6739 17.3667,4.769 30.6329,19.2038 33.4255,37.0371l-11.755 0c-3.2946,-15.609 -17.3556,-27.3395 -34.2035,-27.3395 -16.8479,0 -30.9088,11.7305 -34.2035,27.3395l-11.755 0c2.8152,-17.978 16.2758,-32.4998 33.85,-37.1489 2.4231,-2.3007 4.7462,-5.2054 5.0681,-10.4868 -25.2729,3.1177 -45.3089,22.7927 -48.5211,47.6357l-12.5991 0c3.3292,-31.6405 28.9143,-56.7805 61.0947,-60.0232l-0.0319 -5.7626 13.5802 0 0 5.7034zm0 112.395l0 9.4274c23.4815,-2.6622 42.5399,-19.6058 47.9697,-41.7741l12.809 0c-6.1393,31.0284 -33.9166,54.4528 -67.2611,54.4528 -33.3445,0 -61.1218,-23.4244 -67.2611,-54.4528l12.8091 0c5.3824,21.9745 24.1556,38.8161 47.3542,41.7017l0 -9.4436c-17.9285,-2.7013 -32.4838,-15.4717 -37.5125,-32.2581l12.2442 0c5.1984,12.5577 17.7298,21.4113 32.3661,21.4113 14.6364,0 27.1677,-8.8536 32.3661,-21.4113l12.2442 0c-5.0861,16.9781 -19.9174,29.8483 -38.1279,32.3467zm-13.101 -66.3595l6.7152 -8.5547 7.3794 8.469 -6.0511 10.1803 0.0035 2.2282 1.2022 -0.025 8.2662 -10.2578 9.481 3.2796 -5.2338 8.8495 -13.6669 0.0843 -0.0435 7.996c2.1246,-2.2032 4.9001,-3.6226 8.8756,-3.5962l58.1717 0c0.0289,0.8013 0.0484,1.6049 0.0484,2.413 0,2.6448 -0.1601,5.252 -0.4614,7.8173l-58.2971 0.5452c-4.9055,0.3565 -7.6237,1.7466 -8.9607,4.2524 -1.3406,-2.648 -4.5972,-3.882 -8.2366,-4.3155l-60.56 0.2159c-0.3574,-2.7891 -0.5428,-5.631 -0.5428,-8.5153 0,-0.5297 0.0082,-1.0575 0.0204,-1.5845l61.3168 -0.047c1.8529,-0.0019 4.8038,1.4814 6.4131,2.8794l0.0048 -8.1711 -13.6905 0.0251 -4.5504 -8.7786 9.1508 -2.2243 7.3863 9.1497 1.7493 0.0117 0.0318 -2.1675 -5.9217 -10.1591zm-2.3168 45.4336l2.1175 -0.2526c0.1006,0.9123 0.5123,1.3686 1.2356,1.3686 0.4865,0 0.8854,-0.2268 1.1964,-0.6828 0.3114,-0.4563 0.5094,-1.383 0.5999,-2.7802 -0.2722,0.3443 -0.5803,0.5996 -0.9243,0.7745 -0.3404,0.1751 -0.7197,0.2613 -1.138,0.2613 -0.869,0 -1.6378,-0.3674 -2.3056,-1.1018 -0.6681,-0.7345 -1.0023,-1.7102 -1.0023,-2.9268 0,-1.2995 0.3538,-2.3211 1.0542,-3.067 0.7035,-0.7459 1.5728,-1.119 2.604,-1.119 1.1546,0 2.1044,0.4822 2.8503,1.4431 0.7491,0.9613 1.1222,2.5537 1.1222,4.7772 0,2.2668 -0.3891,3.8937 -1.1706,4.8862 -0.7785,0.9901 -1.7868,1.4863 -3.029,1.4863 -0.8625,0 -1.5728,-0.2496 -2.1338,-0.7518 -0.5607,-0.502 -0.921,-1.2737 -1.0765,-2.3152zm4.9583 -5.1616c0,-0.7748 -0.1654,-1.3686 -0.493,-1.782 -0.3307,-0.416 -0.7038,-0.6224 -1.122,-0.6224 -0.4054,0 -0.7426,0.1721 -1.0118,0.5134 -0.269,0.3415 -0.4055,0.9096 -0.4055,1.7071 0,0.7949 0.1493,1.3773 0.4443,1.7474 0.2921,0.3701 0.6551,0.5539 1.0867,0.5539 0.4116,0 0.7652,-0.1751 1.0602,-0.5281 0.295,-0.3529 0.4411,-0.8837 0.4411,-1.5893zm9.4896 8.0106l0 -2.4789 -4.6731 0 0 -2.0688 4.9488 -7.8271 1.845 0 0 7.8184 1.414 0 0 2.0775 -1.414 0 0 2.4789 -2.1207 0zm0 -4.5564l0 -4.2118 -2.6203 4.2118 2.6203 0zm5.9581 1.7074l2.1175 -0.2526c0.1006,0.9123 0.5123,1.3686 1.2356,1.3686 0.4865,0 0.8854,-0.2268 1.1965,-0.6828 0.3113,-0.4563 0.5093,-1.383 0.5998,-2.7802 -0.2722,0.3443 -0.5802,0.5996 -0.9242,0.7745 -0.3405,0.1751 -0.7198,0.2613 -1.138,0.2613 -0.8691,0 -1.6378,-0.3674 -2.3057,-1.1018 -0.6681,-0.7345 -1.0023,-1.7102 -1.0023,-2.9268 0,-1.2995 0.3538,-2.3211 1.0543,-3.067 0.7034,-0.7459 1.5728,-1.119 2.6036,-1.119 1.1549,0 2.1047,0.4822 2.8506,1.4431 0.7492,0.9613 1.1223,2.5537 1.1223,4.7772 0,2.2668 -0.3892,3.8937 -1.1707,4.8862 -0.7785,0.9901 -1.7868,1.4863 -3.0289,1.4863 -0.8626,0 -1.5729,-0.2496 -2.1338,-0.7518 -0.561,-0.502 -0.921,-1.2737 -1.0766,-2.3152zm4.9583 -5.1616c0,-0.7748 -0.1653,-1.3686 -0.493,-1.782 -0.3307,-0.416 -0.7038,-0.6224 -1.122,-0.6224 -0.4054,0 -0.7426,0.1721 -1.0118,0.5134 -0.2689,0.3415 -0.4054,0.9096 -0.4054,1.7071 0,0.7949 0.1492,1.3773 0.4443,1.7474 0.292,0.3701 0.655,0.5539 1.0866,0.5539 0.4117,0 0.7652,-0.1751 1.0602,-0.5281 0.2951,-0.3529 0.4411,-0.8837 0.4411,-1.5893z"/>
   <path id="_181967680" class="fil0" d="M20.6537 132.074l-1.3242 -3.4493c-0.3348,-0.8721 -0.4895,-1.5693 -0.4658,-2.0881 0.0236,-0.5186 0.1963,-1.0546 0.5158,-1.6047 0.3163,-0.5514 0.8049,-1.0746 1.4589,-1.5731 0.6578,-0.4962 1.5317,-0.9539 2.6273,-1.3745 0.9893,-0.3796 1.8885,-0.5966 2.7054,-0.654 0.8147,-0.0563 1.501,0.0068 2.0606,0.1854 0.5572,0.1795 1.0344,0.4694 1.4369,0.8732 0.4022,0.4041 0.75,0.9844 1.0439,1.7504l1.3629 3.5502 -11.4217 4.3845zm1.2104 -2.6249l7.5633 -2.9033 -0.5449 -1.42c-0.2331,-0.6064 -0.4582,-1.0265 -0.6769,-1.2536 -0.2194,-0.23 -0.478,-0.3872 -0.7755,-0.4712 -0.2988,-0.0867 -0.7184,-0.0906 -1.2623,-0.0131 -0.5411,0.0767 -1.2196,0.2731 -2.0359,0.5863 -0.8457,0.3247 -1.4907,0.6393 -1.9353,0.9441 -0.4416,0.304 -0.7578,0.6331 -0.9422,0.9874 -0.1868,0.3554 -0.2561,0.7236 -0.208,1.1113 0.0329,0.2924 0.1969,0.815 0.4878,1.5731l0.3299 0.859zm4.506 -20.8761l0.4952 2.1455 -2.5115 1.48 0.9009 3.9027 2.8949 0.1795 0.4843 2.0981 -12.7995 -1.0531 -0.4824 -2.09 11.0181 -6.6627zm-3.8771 4.7217l-4.1139 2.3649 4.7299 0.3024 -0.616 -2.6673zm3.7999 -6.5866l-12.1055 0.8465 -0.1409 -2.0147 10.0482 -0.7026 -0.3513 -5.0268 2.0571 -0.1439 0.4924 7.0415zm-0.4625 -9.2854l-12.2268 -0.4269 0.0704 -2.0185 12.2268 0.4272 -0.0704 2.0182zm1.2576 -13.6212l-0.3064 2.1806 -2.8754 0.4818 -0.5574 3.9663 2.6382 1.2049 -0.2997 2.1324 -11.5717 -5.5701 0.2983 -2.124 12.6741 -2.2719zm-5.3115 3.0189l-4.6885 0.7334 4.3076 1.9774 0.3809 -2.7108zm5.5391 -4.9882l-11.6998 -3.5771 0.5762 -1.885 9.0127 -1.5369 -7.8124 -2.3886 0.5512 -1.8034 11.6998 3.5772 -0.5955 1.9477 -8.8109 1.5299 7.6302 2.3328 -0.5515 1.8034zm-4.3309 -23.0842l1.0404 -1.7313 5.6794 3.4124c0.8837,0.531 1.4692,0.8565 1.7618,0.9724 0.5096,0.2031 0.9756,0.2341 1.4028,0.0987 0.4248,-0.1368 0.7805,-0.4419 1.0635,-0.9129 0.2407,-0.4005 0.347,-0.7817 0.3214,-1.1431 -0.0271,-0.3587 -0.1721,-0.6815 -0.4337,-0.9648 -0.2591,-0.282 -0.9125,-0.7377 -1.9576,-1.3656l-5.8015 -3.4858 1.0448 -1.7387 5.5081 3.3096c1.4066,0.8451 2.3793,1.5328 2.9147,2.0571 0.5368,0.5286 0.8419,1.1706 0.9134,1.9312 0.0737,0.7622 -0.1514,1.5742 -0.6692,2.4362 -0.5384,0.896 -1.1209,1.4999 -1.7452,1.8094 -0.6222,0.3102 -1.2949,0.4013 -2.015,0.2779 -0.7197,-0.1235 -1.8643,-0.6581 -3.4344,-1.6017l-5.5937 -3.361zm16.052 -3.0499l-9.5082 -7.6992 1.2406 -1.5318 8.9321 1.9511 -6.3489 -5.1413 1.1867 -1.4654 9.5081 7.6993 -1.2818 1.5829 -8.7427 -1.8823 6.2007 5.0213 -1.1866 1.4654zm6.986 -8.2431l-8.651 -8.651 1.4281 -1.4281 8.651 8.651 -1.4281 1.4281zm5.3727 -5.0412l-10.607 -7.0705 1.6824 -1.4119 7.7626 5.3074 -3.9418 -8.5134 1.6498 -1.3843 5.1168 11.6775 -1.6628 1.3952zm5.8594 -4.7363l-6.4832 -10.3756 6.3146 -3.9456 1.0972 1.7558 -4.6018 2.8756 1.4371 2.2999 4.2758 -2.6719 1.0915 1.7466 -4.276 2.6719 1.7648 2.8239 4.7565 -2.9721 1.0928 1.7488 -6.4693 4.0427zm8.6613 -5.3265l-4.7804 -11.262 3.9255 -1.6661c1.0042,-0.4264 1.7659,-0.6292 2.2817,-0.6096 0.5159,0.0193 1.0189,0.2202 1.5057,0.6017 0.4905,0.3826 0.8807,0.9227 1.1758,1.6177 0.3739,0.881 0.4658,1.6805 0.2716,2.3973 -0.1966,0.7179 -0.6534,1.3109 -1.3718,1.7767 0.5212,0.1194 0.984,0.291 1.3884,0.5216 0.4065,0.2298 1.0227,0.6893 1.8477,1.3789l2.0522 1.7221 -2.2183 0.9417 -2.3938 -1.8776c-0.8601,-0.6777 -1.4265,-1.0932 -1.6968,-1.2414 -0.2673,-0.1495 -0.5183,-0.2227 -0.7489,-0.2268 -0.2297,-0.0016 -0.5596,0.089 -0.9898,0.2714l-0.3853 0.1637 1.9957 4.7016 -1.8592 0.7891zm-0.9 -7.2895l1.3843 -0.5876c0.8443,-0.3584 1.3664,-0.6232 1.566,-0.7948 0.1996,-0.1713 0.3223,-0.3995 0.3709,-0.6864 0.0457,-0.2855 -0.0087,-0.6183 -0.1667,-0.9906 -0.1525,-0.3592 -0.3486,-0.6167 -0.5824,-0.7741 -0.2369,-0.1564 -0.4941,-0.2236 -0.775,-0.2002 -0.1977,0.0158 -0.7149,0.2042 -1.5486,0.5583l-1.4608 0.62 1.2123 2.8554zm9.4586 -0.5585l1.8482 -0.7402c0.6192,1.4532 1.5266,2.0212 2.7207,1.7012 0.5887,-0.1577 1.0123,-0.4365 1.2677,-0.8381 0.2586,-0.3997 0.3238,-0.8272 0.2015,-1.2837 -0.0721,-0.2695 -0.1912,-0.4827 -0.3598,-0.638 -0.1691,-0.1582 -0.3918,-0.2635 -0.6665,-0.3198 -0.2746,-0.056 -0.9117,-0.1006 -1.9184,-0.1375 -0.9017,-0.0297 -1.5853,-0.1385 -2.0503,-0.3326 -0.4666,-0.1904 -0.8789,-0.496 -1.2365,-0.9161 -0.357,-0.4204 -0.6085,-0.9072 -0.757,-1.4605 -0.1724,-0.6437 -0.1819,-1.2637 -0.0291,-1.8589 0.1566,-0.5933 0.4566,-1.0923 0.9003,-1.4945 0.4471,-0.4 1.0475,-0.7024 1.8067,-0.9058 1.1391,-0.3051 2.1107,-0.2352 2.9148,0.2127 0.8062,0.4448 1.3819,1.2399 1.7259,2.3807l-1.9282 0.6287c-0.2584,-0.6121 -0.5616,-1.0059 -0.9153,-1.1821 -0.3506,-0.1746 -0.7919,-0.192 -1.3172,-0.0514 -0.5257,0.1409 -0.9034,0.36 -1.128,0.6562 -0.227,0.2969 -0.2972,0.6077 -0.2086,0.9378 0.0862,0.322 0.288,0.5569 0.6054,0.7078 0.3184,0.1534 0.977,0.2336 1.9749,0.2491 1.0616,0.0226 1.8521,0.1322 2.3737,0.3285 0.5212,0.1966 0.9661,0.5139 1.33,0.9471 0.3646,0.4362 0.6414,1.0078 0.8318,1.7175 0.2749,1.0262 0.1892,1.9723 -0.2537,2.8402 -0.4454,0.8686 -1.3395,1.4826 -2.6823,1.8423 -2.3744,0.6361 -4.0601,-0.36 -5.0507,-2.9906zm11.2691 1.262l-1.9141 -12.0838 1.9948 -0.3159 1.9138 12.0837 -1.9945 0.316zm6.9985 -1.104l-0.7092 -10.139 -2.9721 0.2078 -0.1444 -2.0656 7.9505 -0.556 0.1447 2.0658 -2.964 0.2072 0.7092 10.1389 -2.0147 0.1409zm9.5546 -0.391l0.09 -5.1497 -3.5478 -7.147 2.3698 0.0413 2.2766 4.8802 2.4054 -4.7986 2.3272 0.0408 -3.8124 7.0357 -0.0895 5.1323 -2.0193 -0.035zm15.646 -4.2018c0.3774,-1.4086 0.8944,-2.5115 1.5565,-3.3104 0.6597,-0.7992 1.3865,-1.3327 2.1773,-1.5987 0.7907,-0.2659 1.665,-0.2705 2.6224,-0.0141 1.3868,0.3717 2.3734,1.2022 2.9646,2.496 0.5884,1.293 0.6216,2.918 0.0973,4.8742 -0.5292,1.9758 -1.4056,3.3983 -2.6282,4.2622 -1.0754,0.7673 -2.3075,0.9623 -3.6995,0.5892 -1.4034,-0.376 -2.3791,-1.1592 -2.9302,-2.348 -0.6268,-1.3594 -0.6799,-3.0102 -0.1602,-4.9504zm2.0353 0.4601c-0.3641,1.3593 -0.3782,2.4468 -0.0456,3.2642 0.335,0.8179 0.8821,1.3302 1.647,1.5353 0.7674,0.2055 1.4937,0.0375 2.1808,-0.5009 0.6869,-0.5384 1.2145,-1.5059 1.5892,-2.9036 0.3671,-1.3703 0.3932,-2.4484 0.0769,-3.2381 -0.3143,-0.7861 -0.8704,-1.2862 -1.6652,-1.4991 -0.7954,-0.2132 -1.5331,-0.0569 -2.2083,0.4701 -0.6782,0.5289 -1.203,1.4853 -1.5748,2.8721zm7.9296 8.8674l4.7802 -11.2617 6.3296 2.6866 -0.809 1.9062 -4.4704 -1.8978 -1.131 2.6644 3.8649 1.6405 -0.809 1.9062 -3.8651 -1.6406 -2.0313 4.7854 -1.8589 -0.7892zm16.4131 8.7783l5.6835 -8.4261 -2.4701 -1.6661 1.1578 -1.7167 6.6075 4.4569 -1.1578 1.7166 -2.4631 -1.6614 -5.6835 8.4261 -1.6743 -1.1293zm4.8101 3.6517l8.3437 -8.9477 5.4459 5.0782 -1.4121 1.5143 -3.9688 -3.7009 -1.8496 1.9835 3.6876 3.4387 -1.4048 1.5062 -3.6873 -3.4388 -2.2711 2.4354 4.1022 3.8254 -1.4066 1.5084 -5.5791 -5.2027zm14.8207 9.0909l0.6461 2.0025c-1.2582,0.623 -2.3543,0.8582 -3.2941,0.7026 -0.9373,-0.1571 -1.7351,-0.6398 -2.3897,-1.448 -0.8228,-1.0161 -1.0977,-2.1569 -0.8272,-3.4205 0.3133,-1.4597 1.2392,-2.8106 2.7734,-4.053 1.6226,-1.314 3.187,-1.9758 4.6969,-1.9853 1.3091,-0.0079 2.3979,0.5215 3.2672,1.5951 0.7062,0.8723 0.9991,1.845 0.8802,2.9158 -0.0859,0.7625 -0.4655,1.5793 -1.1426,2.4503l-1.7137 -1.1888c0.4351,-0.5175 0.6695,-1.0336 0.7038,-1.5525 0.0342,-0.5191 -0.1118,-0.98 -0.4362,-1.3805 -0.4661,-0.5757 -1.0964,-0.8424 -1.8928,-0.7984 -0.7941,0.0419 -1.7692,0.5308 -2.9249,1.4668 -1.1975,0.9697 -1.9064,1.8371 -2.1242,2.5998 -0.2203,0.7647 -0.0996,1.4295 0.3592,1.9962 0.3372,0.4164 0.7888,0.6442 1.3539,0.6853 0.5688,0.0416 1.2576,-0.1537 2.0647,-0.5874zm-0.8593 6.4707l10.4871 -6.301 1.0401 1.7311 -4.1262 2.4794 2.0465 3.4061 4.1265 -2.4791 1.0444 1.7381 -10.487 6.3013 -1.0445 -1.7384 4.5855 -2.7551 -2.0468 -3.4064 -4.5855 2.7554 -1.0401 -1.7314zm5.4586 9.488l11.3436 -4.583 0.7386 1.8276 -6.037 6.8661 7.5744 -3.0602 0.7065 1.7484 -11.3436 4.583 -0.7627 -1.8885 5.8847 -6.7339 -7.398 2.989 -0.7065 -1.7485zm9.5084 8.4261c1.4151,-0.3527 2.6303,-0.4353 3.6501,-0.2436 1.0189,0.1895 1.8379,0.5664 2.4535,1.1293 0.6159,0.5626 1.044,1.3251 1.2838,2.2866 0.3475,1.3933 0.0992,2.6586 -0.7456,3.8029 -0.8457,1.1415 -2.2507,1.9586 -4.2159,2.4484 -1.9848,0.4949 -3.6536,0.4182 -5.0018,-0.2323 -1.1927,-0.5686 -1.9606,-1.5516 -2.3092,-2.9501 -0.3516,-1.4096 -0.1395,-2.6428 0.633,-3.7011 0.8852,-1.2074 2.3032,-2.0541 4.2521,-2.5401zm0.5844 2.0033c-1.3653,0.3404 -2.3233,0.8555 -2.877,1.5423 -0.5531,0.6899 -0.7358,1.4168 -0.5444,2.185 0.1923,0.7709 0.6913,1.3248 1.4953,1.6647 0.8039,0.3396 1.906,0.332 3.3099,-0.018 1.3765,-0.3431 2.3323,-0.8429 2.8696,-1.5024 0.5352,-0.6561 0.703,-1.3849 0.5036,-2.1835 -0.199,-0.7989 -0.6934,-1.3683 -1.4817,-1.7033 -0.7913,-0.3367 -1.8822,-0.3321 -3.2753,0.0152zm-3.8744 11.2117l12.0887 -1.0575 0.1762 2.0117 -10.0343 0.878 0.4392 5.0197 -2.0544 0.1798 -0.6154 -7.0317zm6.6864 9.3653c1.4548,0.1017 2.6363,0.3987 3.5467,0.8963 0.9104,0.4949 1.5728,1.1067 1.9847,1.8322 0.412,0.7255 0.5833,1.5829 0.5143,2.5716 -0.1001,1.4322 -0.7272,2.5591 -1.8845,3.3863 -1.1567,0.8242 -2.7459,1.1671 -4.7663,1.0257 -2.0402,-0.1428 -3.6038,-0.7315 -4.685,-1.7667 -0.9588,-0.9093 -1.3851,-2.0813 -1.2845,-3.5193 0.1014,-1.4493 0.6841,-2.5563 1.7457,-3.3242 1.215,-0.8748 2.8253,-1.2419 4.8289,-1.1019zm-0.0631 2.086c-1.404,-0.0982 -2.474,0.0954 -3.2128,0.5778 -0.7391,0.4851 -1.1377,1.1198 -1.1929,1.9097 -0.0555,0.7927 0.2479,1.4736 0.9079,2.0452 0.6594,0.5713 1.7099,0.9049 3.1532,1.0058 1.4151,0.099 2.4786,-0.081 3.1933,-0.5422 0.7116,-0.4585 1.0964,-1.0997 1.154,-1.9209 0.0574,-0.8212 -0.2368,-1.5157 -0.8829,-2.0777 -0.6486,-0.5648 -1.6876,-0.8977 -3.1198,-0.9977zm-3.6085 15.0553l2.0093 0.4642 -0.9817 4.2521 -4.7489 -1.0964c-0.4062,-0.5442 -0.6991,-1.252 -0.8815,-2.1213 -0.182,-0.8696 -0.1806,-1.6993 0.0027,-2.4933 0.2224,-0.9631 0.6551,-1.7607 1.2995,-2.3867 0.645,-0.6284 1.4907,-1.0501 2.5365,-1.262 1.0458,-0.2115 2.2061,-0.1715 3.4856,0.1238 1.3128,0.3032 2.3836,0.7809 3.2157,1.4322 0.8316,0.651 1.3977,1.3781 1.6977,2.1811 0.2999,0.803 0.3374,1.6916 0.1136,2.6602 -0.2689,1.1658 -0.782,2.0324 -1.5383,2.5977 -0.7556,0.5651 -1.7283,0.8142 -2.9264,0.7481l0.0038 -2.0544c0.6466,-0.0027 1.1777,-0.1637 1.5929,-0.48 0.4144,-0.3138 0.6858,-0.742 0.8115,-1.2862 0.1936,-0.838 0.0236,-1.5964 -0.5088,-2.2662 -0.5319,-0.6724 -1.4687,-1.1605 -2.8093,-1.47 -1.4349,-0.3315 -2.5933,-0.3035 -3.4697,0.0878 -0.7584,0.3337 -1.2316,0.9142 -1.4211,1.7357 -0.0892,0.3859 -0.09,0.8066 -0.0057,1.2645 0.0878,0.456 0.2496,0.8821 0.4878,1.2821l1.5125 0.3494 0.5223 -2.2624zm-7.0822 8.3059l4.8081 1.8459 7.9293 -0.8892 -0.8492 2.2126 -5.3645 0.4702 3.6862 3.9015 -0.834 2.173 -5.3077 -5.9889 -4.7921 -1.8395 0.7239 -1.8856z"/>
   <path id="_181968208" class="fil1" d="M100 0c55.2284,0 99.9999,44.5251 99.9999,99.4494 0,54.9246 -44.7715,99.4495 -99.9999,99.4495 -55.2285,0 -100,-44.5249 -100,-99.4495 0,-54.9243 44.7715,-99.4494 100,-99.4494zm0 5.0026c52.4501,0 94.9696,42.2853 94.9696,94.4468 0,52.1619 -42.5195,94.4469 -94.9696,94.4469 -52.4502,0 -94.9697,-42.285 -94.9697,-94.4469 0,-52.1615 42.5195,-94.4468 94.9697,-94.4468z"/>
   <g>
    <path id="_181968424" class="fil1" d="M88.0197 181.317c0.5401,-0.3434 0.7502,-0.1409 0.8166,0.1572 0.0665,0.298 -1.1399,2.092 -1.3246,2.3816 -0.7605,1.1923 -1.657,2.386 -2.5019,3.3979 -0.2376,0.242 -0.7044,0.7452 -1.2371,0.3916 -0.6057,-0.3192 -0.5354,-1.1359 -0.0771,-2.1728 0.2943,-0.6657 1.0982,-2.6788 1.1894,-3.4577 0.0081,-0.124 -0.1147,-0.1494 -0.2569,-0.1292 -0.2816,0.165 -0.6234,0.2397 -0.9378,0.2575 -2.4894,0.1408 -1.8381,-3.7304 0.9129,-3.5327 0.3434,0.0247 0.6788,0.0342 0.801,-0.1075 0.1584,-0.1834 1.2732,-2.2983 1.1605,-2.851 -0.0793,-0.3949 -1.2205,0.3015 -1.6109,0.1711 -0.3622,-0.121 -0.8319,-0.5136 -0.9276,-0.8499 -0.4314,-1.5166 1.9655,-1.6344 3.1864,-1.8697 1.2208,-0.2353 2.4505,-0.5439 1.9902,0.8709 -0.1955,0.5368 -0.9884,1.0474 -1.3041,1.7269 -0.3159,0.6794 -1.2328,2.3748 -1.6538,3.3397 -0.2996,0.7092 0.2386,0.781 0.1751,1.2143 -0.047,0.3207 -0.4825,1.565 -0.9318,2.1201 -0.1766,0.3559 -0.3739,0.7297 -0.4686,1.0643 -0.2015,0.7121 -0.4804,2.2927 -0.4407,2.6436l0.0001 0.0011c0.4868,-0.4276 1.5711,-1.6879 2.0403,-2.3527 0.5249,-0.7441 0.8603,-2.0713 1.4004,-2.4146zm-3.4125 -1.752c-0.2555,0.0365 -1.2828,0.7037 -1.3098,1.0632 -0.0271,0.3596 0.3935,0.5511 0.7696,0.426 0.3761,-0.1251 0.7046,-0.5917 0.8154,-0.9834 0.1109,-0.3916 -0.0198,-0.5422 -0.2752,-0.5058z"/>
    <path id="_181968640" class="fil1" d="M94.8555 178.931c-0.4215,0.4208 -1.4037,1.3809 -1.5654,2.2089 -0.0707,0.3622 -0.0978,0.733 0.2603,0.8372 0.5667,0.1649 1.2987,0.0545 1.724,0.1048 0.4063,0.0187 0.4707,0.621 0.3338,0.9916 -0.1253,0.6213 -0.9468,0.6063 -1.6889,0.7017 -0.594,0.0763 -1.1469,0.4009 -1.245,0.9165 -0.2253,1.1838 0.0886,1.4086 0.3776,1.5205 1.345,0.521 3.8424,-0.7475 4.259,0.7024 0.1179,0.3808 -0.0809,0.8061 -0.2885,1.0292 -0.3598,0.3869 -1.1033,0.9221 -1.5298,0.8846 -0.9635,-0.085 -0.9397,-0.8378 -2.6345,-0.7249 -1.1694,0.1994 -3.561,0.4119 -4.5678,-0.2143 -0.6373,-0.3963 -0.568,-1.2961 0.2329,-1.3476 0.8788,-0.0565 2.133,-0.224 2.3489,-0.979 0.3006,-1.0505 -0.9851,-1.4134 -0.773,-2.068 0.1326,-0.4053 1.4172,-0.7853 1.6084,-1.3406 0.2827,-0.8212 0.5971,-1.1035 0.5966,-1.4247 -0.0116,-0.3353 -0.3664,-0.4303 -0.6747,-0.3873 -0.3082,0.0431 -0.5444,-0.1614 -0.7258,-0.1902 -0.1814,-0.0288 -0.6482,0.1683 -0.9891,0.0965 -0.6528,-0.2153 -0.9194,-0.526 -0.9827,-1.223 0.0501,-1.2412 0.7102,-4.1696 2.0321,-3.6124 0.6956,0.2932 0.2295,1.6907 0.2437,2.5485 0.0085,0.5129 0.2791,0.5732 0.563,0.5648 0.1562,-0.0046 1.1983,-0.3212 1.2868,-0.6007 0.0905,-0.2861 0.1804,-0.447 -0.0419,-0.7229 -0.246,-0.3051 -0.6807,-0.7591 -0.6715,-1.146 -0.0336,-0.3938 0.7438,-0.8945 1.4127,-1.561 0.2026,-0.2019 0.1055,-0.4614 0.1621,-0.7492 0.119,-0.6051 0.6649,-0.5975 0.977,-0.1876l0.0088 0.0108c0.2031,0.2659 0.4422,0.6031 0.7113,0.8966 0.3898,0.4249 0.502,0.6071 0.2262,1.1864 -0.105,0.2206 -0.7402,0.8462 -1.0213,1.1944 -0.1144,0.1416 -0.1298,0.1747 -0.1447,0.3451 -0.0415,0.4757 0.0019,0.5607 0.5316,0.1029 0.8551,-0.7389 2.2138,-2.655 2.2949,-3.7481 0.0923,-1.2449 -0.6504,-1.2357 -0.9633,-1.2284 -0.4233,0.0099 -1.2104,0.2049 -1.6987,0.4432l-0.0021 0.001c-0.0394,0.0072 -0.1899,0.071 -0.209,0.0748 -0.0886,0.0179 -1.2543,0.5526 -1.3809,0.6184 -0.1763,0.0916 -0.8069,0.4893 -1.0301,0.4228 -0.1534,-0.0456 -0.8991,-0.1484 -0.8869,-0.5291 0.0056,-0.1731 0.2609,-0.5473 0.4559,-0.7012 1.0062,-0.7938 3.7419,-1.8684 4.9506,-1.8633 1.7371,0.0073 1.9599,2.231 1.4664,3.9481 -0.4972,1.7301 -1.7682,2.8784 -3.349,4.1978z"/>
   </g>
  </g>
 </g>
</svg>
