<?xml version="1.0" encoding="UTF-8"?>
<!DOCTYPE svg PUBLIC "-//W3C//DTD SVG 1.1//EN" "http://www.w3.org/Graphics/SVG/1.1/DTD/svg11.dtd">
<!-- Creator: CorelDRAW -->
<svg xmlns="http://www.w3.org/2000/svg" xml:space="preserve" width="200mm" height="200.003mm" style="shape-rendering:geometricPrecision; text-rendering:geometricPrecision; image-rendering:optimizeQuality; fill-rule:evenodd; clip-rule:evenodd"
viewBox="0 0 99.3509 99.3522"
 xmlns:xlink="http://www.w3.org/1999/xlink">
 <defs>
  <style type="text/css">
   <![CDATA[
    .fil1 {fill:#063A72}
    .fil0 {fill:#063A72;fill-rule:nonzero}
   ]]>
  </style>
 </defs>
 <g id="图层_x0020_1">
  <metadata id="CorelCorpID_0Corel-Layer"/>
  <g id="_182566368">
   <path id="_181966600" class="fil0" d="M49.6743 0c27.3611,0 49.6766,22.3151 49.6766,49.6763 0,27.3584 -22.3155,49.6759 -49.6766,49.6759 -27.3591,0 -49.6743,-22.3175 -49.6743,-49.6759 0,-27.3612 22.3151,-49.6763 49.6743,-49.6763zm0 1.98205l0 0c-26.2681,0 -47.6934,21.4249 -47.6934,47.6942 0,26.2681 21.4253,47.6942 47.6934,47.6942 26.2701,0 47.6933,-21.4261 47.6933,-47.6942 0,-26.2694 -21.4232,-47.6942 -47.6933,-47.6942z"/>
   <path id="_181969336" class="fil0" d="M32.2267 70.8478c-3.10775,-2.5716 -5.65108,-5.80805 -7.39215,-9.49338 -1.67819,-3.54871 -2.61626,-7.50566 -2.61626,-11.6782 0,-15.1218 12.3363,-27.4552 27.456,-27.4552 15.1213,0 27.4567,12.3334 27.4567,27.4552 0,4.17249 -0.940853,8.12944 -2.6178,11.6782 -1.74187,3.68532 -4.28202,6.92178 -7.39096,9.49338l-0.630183 -0.762419c3.0002,-2.47761 5.44835,-5.6021 7.13007,-9.15359 1.61167,-3.41563 2.51785,-7.23319 2.51785,-11.2555 0,-14.5768 -11.8881,-26.4669 -26.4657,-26.4669 -14.5764,0 -26.4637,11.8901 -26.4637,26.4669 0,4.02232 0.903795,7.83988 2.5174,11.2555 1.67978,3.5515 4.12669,6.67598 7.12927,9.15359l-0.63053 0.762419z"/>
   <polygon id="_181968664" class="fil1" points="7.13642,66.2594 5.26346,61.233 6.28558,60.8769 14.8747,62.1838 13.5614,58.6597 14.5812,58.3037 16.2964,62.9083 15.2711,63.2612 6.6891,61.9563 8.15735,65.9014 "/>
   <polygon id="_182588624" class="fil1" points="10.4051,73.1107 9.88929,72.1089 13.9263,70.0313 12.6449,67.5421 8.60826,69.6162 8.09163,68.6132 16.723,64.1738 17.2392,65.1768 13.6041,67.0477 14.8831,69.5365 18.5206,67.6683 19.0381,68.6721 "/>
   <polygon id="_182588120" class="fil1" points="14.4999,78.5797 11.4316,74.2961 19.5252,69.2684 22.4485,73.3425 21.5479,73.8998 19.3225,70.7948 16.811,72.3547 18.8556,75.2075 17.9554,75.7651 15.912,72.9111 13.0229,74.7048 15.3989,78.0221 "/>
   <polygon id="_182588072" class="fil1" points="21.3806,85.3123 20.3549,84.4443 26.3119,77.1239 27.3392,77.9906 "/>
   <path id="_182587208" class="fil1" d="M25.9972 88.5363l1.21968 -2.59509 -1.48217 -1.0715 -2.19958 2.1434 -1.01055 -0.778712 6.98824 -6.89907 1.40095 0.853623 -3.7188 9.02215 -1.19777 -0.674791zm1.7825 -3.86137l0 0 1.45668 -3.34837 -0.135415 -0.111919 -2.51666 2.56484 1.19539 0.89545z"/>
   <polygon id="_182587184" class="fil1" points="32.9971,91.9205 31.7371,91.3318 32.4728,84.6009 29.7116,90.2619 28.4541,89.6836 32.8309,81.0159 33.9713,81.5405 33.4408,87.9396 36.2873,82.6554 37.3456,83.0932 "/>
   <path id="_182587568" class="fil1" d="M39.5145 93.868l-0.814181 -0.268446 0.0745132 -0.763611c-0.187227,0.16532 -0.440969,0.270483 -0.754073,0.314694 -0.313849,0.050967 -0.630928,0.0219069 -0.950788,-0.0840509 -0.673947,-0.218274 -1.16787,-0.743294 -1.48892,-1.58177 -0.325474,-0.834498 -0.258163,-1.99045 0.191946,-3.45552 0.493973,-1.60044 1.10498,-2.71695 1.82398,-3.34395 0.718953,-0.625364 1.81554,-0.973092 2.7851,-0.665601 1.04279,0.334216 1.71877,1.61644 1.4228,3.39417l-1.24516 -0.104368c0.211915,-0.758047 0.101586,-1.94425 -0.640118,-2.188 -0.60306,-0.195622 -1.27542,-0.00879255 -1.70725,0.471619 -0.427408,0.477977 -0.846817,1.38098 -1.2547,2.71297 -0.389157,1.25952 -0.498294,2.18085 -0.327013,2.7624 0.170884,0.58319 0.467992,0.940456 0.883478,1.07552 0.415038,0.135415 0.792274,0.0796297 1.13205,-0.168102 0.339383,-0.238591 0.615379,-0.709812 0.823718,-1.39017l0.175652 -0.56322 -1.49131 -0.481603 0.30312 -0.97031 2.44453 0.793863 -1.38739 4.50348z"/>
   <path id="_182644416" class="fil1" d="M52.4291 91.727c-0.0278679,0.873543 -0.262882,1.56026 -0.699033,2.05497 -0.43779,0.491141 -1.11174,0.722579 -2.02552,0.686316 -0.910551,-0.0322394 -1.57138,-0.313055 -1.97768,-0.839267 -0.401924,-0.525765 -0.591138,-1.22524 -0.565257,-2.09958l0.217529 -6.61583 1.1631 0.0481852 -0.215492 6.60947c-0.0219069,0.623775 0.104368,1.08427 0.362482,1.38262 0.260498,0.302722 0.610611,0.461237 1.0488,0.479567 0.43774,0.0163432 0.798235,-0.120711 1.07826,-0.400732 0.278431,-0.282405 0.429395,-0.73013 0.447725,-1.35033l0.215492 -6.60947 1.16514 0.0418267 -0.215542 6.61225z"/>
   <polygon id="_182644752" class="fil1" points="59.0572,93.4896 58.0184,93.6517 54.7422,87.3378 55.2417,94.1146 54.0053,94.291 53.2835,84.7901 54.7043,84.6586 57.407,89.0833 56.9035,84.3193 57.9364,84.1436 "/>
   <polygon id="_182644608" class="fil1" points="62.6052,92.4981 61.3895,92.8666 58.8549,83.8763 60.0734,83.5031 "/>
   <polygon id="_182643720" class="fil1" points="65.8933,81.0988 67.4309,91.0299 66.2323,91.6194 60.9708,83.192 62.1248,82.7045 65.7842,88.4539 64.7709,81.5872 "/>
   <polygon id="_182643624" class="fil1" points="75.6604,86.7284 71.2226,89.1271 66.3901,80.8291 70.6104,78.5503 71.1477,79.4692 67.9256,81.2103 69.4241,83.7835 72.3841,82.1862 72.9207,83.1063 69.9615,84.7052 71.687,87.6664 75.1226,85.807 "/>
   <path id="_182641824" class="fil1" d="M80.7151 83.182l-0.975526 0.834895 -3.43754 -2.84764 -0.890681 0.80504 2.32461 3.16149 -0.977066 1.01974 -5.69012 -7.99084 1.8136 -1.30095c0.578769,-0.417075 1.34193,-0.713439 2.03068,-0.63058 1.77172,0.210723 2.52858,1.40452 2.44969,2.7935 -0.0266757,0.439727 -0.0521592,0.865148 -0.22503,1.30214l3.57738 2.85321zm-6.13268 -5.62798l0 0c-0.721784,-0.197559 -1.29375,0.360097 -1.81276,0.765201l1.89244 2.50071c0.579166,-0.418267 0.847215,-0.505497 1.285,-1.26032 0.187227,-0.908216 -0.216684,-1.69329 -1.36468,-2.0056z"/>
   <path id="_182644776" class="fil1" d="M83.7866 75.464c1.98528,1.19738 1.52042,4.57719 -1.08427,4.97276 -0.704199,0.105958 -1.52876,-0.107945 -1.88086,-0.330242l0.444098 -1.01055c0.432226,0.0952278 0.86321,0.250563 1.27626,0.171281 1.6917,-0.319065 1.61718,-2.07529 0.632567,-2.80423 -0.343009,-0.256524 -0.832908,-0.287571 -1.24204,-0.239386 -1.13881,0.123493 -1.87093,0.975079 -3.1384,1.05675 -1.3858,0.0856405 -2.35293,-0.758792 -2.58119,-2.1119 -0.118675,-0.713836 0.0506193,-1.40532 0.406693,-1.96377 0.734153,-1.15158 2.29198,-1.30731 3.42602,-0.636144l-0.440522 1.04363c-0.613442,-0.324232 -1.70446,-0.324232 -2.11036,0.319065 -0.217082,0.33218 -0.291148,0.676729 -0.224632,1.02729 0.142171,0.763561 0.660832,1.20612 1.39653,1.11651 1.23245,-0.151361 2.06252,-1.1639 3.27545,-1.12411 0.573602,0.0199199 1.26032,0.162538 1.84465,0.513048z"/>
   <polygon id="_182641920" class="fil1" points="87.9727,74.2324 87.2604,75.1107 79.0768,69.979 79.7918,69.1035 "/>
   <polygon id="_181141960" class="fil1" points="83.8428,63.8826 82.9382,65.5644 90.6641,70.1073 90.1467,71.0709 82.4168,66.5287 81.5118,68.2057 80.5478,67.6361 82.8765,63.3154 "/>
   <polygon id="_181143016" class="fil1" points="85.2601,57.4982 89.9735,61.7106 93.1218,63.0609 92.739,64.1229 89.8225,62.9892 83.1071,62.8378 83.4325,61.7599 88.1188,61.8352 84.7976,58.7852 "/>
   <path id="_181142656" class="fil1" d="M20.6581 81.0828c-0.834895,0.830921 -1.60889,1.26071 -2.33504,1.28659 -0.721735,0.0219069 -1.37422,-0.264869 -1.96491,-0.863955 -0.533763,-0.545337 -0.798682,-1.17865 -0.793863,-1.906 0.00198702,-0.370479 0.110727,-0.747268 0.321052,-1.13603l1.0635 0.649655c-0.0951782,0.1836 -0.140582,0.356123 -0.143363,0.526162 -0.0107796,0.394373 0.109932,0.725361 0.362879,0.984716 0.358855,0.362035 0.736488,0.528944 1.12882,0.4975 0.395168,-0.0358657 0.87553,-0.327461 1.43835,-0.893463l4.72061 -4.67198 0.881491 0.89381 -4.67953 4.63298z"/>
   <path id="_181142008" class="fil1" d="M36.7103 79.4473l-3.3061 -2.0502 0.300338 -0.519059 1.22962 0.759637 1.96576 -3.42363 -1.23081 -0.763214 0.267254 -0.462429c0.46685,0.286379 0.83569,0.447327 1.11293,0.481554 0.277239,0.0414293 0.508677,-0.0704895 0.695903,-0.329l0.708223 0.436945 -2.64293 4.60347 1.19777 0.744486 -0.297953 0.521443zm9.86539 -2.08885l0 0c0.0537985,-0.262882 -0.0370579,-0.500679 -0.272867,-0.715376 -0.240181,-0.21271 -0.602663,-0.351354 -1.08501,-0.419459 -0.440969,-0.0617466 -0.821383,-0.0326864 -1.13523,0.0844483 -0.315886,0.117482 -0.499139,0.308683 -0.553285,0.579961 -0.0410319,0.191996 0,0.36884 0.11788,0.517817 0.113955,0.15454 0.304759,0.308335 0.575192,0.454481 0.113906,0.0609518 0.292787,0.152603 0.532968,0.264522 0.245794,0.116688 0.467247,0.205905 0.673996,0.285584 0.387568,-0.127865 0.661975,-0.277239 0.8265,-0.444546 0.16532,-0.16686 0.270483,-0.371225 0.31986,-0.607431zm-0.429395 2.96076l0 0c0.0477878,-0.240181 0.0163432,-0.444546 -0.101586,-0.605047 -0.119469,-0.164128 -0.374006,-0.347331 -0.762369,-0.550901 -0.12548,-0.0673102 -0.29994,-0.145003 -0.516625,-0.237399 -0.216734,-0.0900119 -0.46526,-0.195175 -0.735346,-0.313055 -0.366456,0.0975626 -0.660435,0.234617 -0.883875,0.428997 -0.219466,0.183203 -0.358905,0.413051 -0.415883,0.6811 -0.0732713,0.357315 0.0350709,0.669228 0.322692,0.947658 0.281213,0.277239 0.674742,0.448917 1.17463,0.521393 0.511458,0.0700921 0.942443,0.0262783 1.29102,-0.127467 0.350113,-0.155335 0.559246,-0.405501 0.627351,-0.745281zm-2.0502 1.45668l0 0c-0.448917,-0.0609518 -0.852828,-0.159707 -1.20572,-0.29994 -0.353341,-0.139787 -0.642105,-0.306696 -0.870761,-0.503461 -0.222248,-0.195572 -0.375993,-0.411859 -0.469234,-0.645681 -0.0844483,-0.233425 -0.101537,-0.471221 -0.0561333,-0.715426 0.0645284,-0.314694 0.258114,-0.589499 0.575192,-0.821334 0.312657,-0.229451 0.737283,-0.38717 1.26787,-0.475593l0.00675586 -0.0247384c-0.412257,-0.230593 -0.705441,-0.459249 -0.884273,-0.689098 -0.175255,-0.229799 -0.227066,-0.492731 -0.168102,-0.792274 0.0856405,-0.444148 0.418267,-0.772751 0.999023,-0.996589 0.574745,-0.22349 1.25828,-0.278431 2.05016,-0.167704 0.827345,0.114303 1.4615,0.344946 1.90163,0.694661 0.440572,0.346536 0.616224,0.741307 0.529391,1.17547 -0.0530037,0.265714 -0.225874,0.507882 -0.516625,0.734153 -0.290403,0.223043 -0.672804,0.374006 -1.15277,0.457262l-0.00357663 0.0211121c0.494718,0.236604 0.856802,0.485975 1.08342,0.753229 0.226272,0.264869 0.304759,0.581153 0.231835,0.938071 -0.102778,0.501474 -0.469234,0.881491 -1.10056,1.14318 -0.636939,0.260101 -1.37223,0.332229 -2.21751,0.214697zm11.4436 -3.62636l0 0c0,-0.405501 -0.0549907,-0.735296 -0.167704,-0.987846 -0.115098,-0.254537 -0.264869,-0.448917 -0.462478,-0.587959 -0.172871,-0.129852 -0.351702,-0.215095 -0.533763,-0.265664 -0.178434,-0.0446086 -0.375993,-0.0692972 -0.589896,-0.0692972 -0.495513,0 -0.882683,0.115098 -1.1707,0.3521 -0.295569,0.234617 -0.43774,0.571615 -0.43774,1.01616 0,0.250116 0.0438137,0.458852 0.138594,0.620993 0.0976123,0.160899 0.253742,0.301927 0.470824,0.417025 0.148182,0.0816664 0.322245,0.139439 0.515035,0.167307 0.190406,0.0302523 0.397553,0.0414293 0.614237,0.0414293 0.256524,0 0.530981,-0.028315 0.826152,-0.0880249 0.297506,-0.060157 0.553633,-0.141823 0.770764,-0.238591 0.00437144,-0.0406345 0.0127169,-0.0932408 0.0170884,-0.156577 0.00521592,-0.0657206 0.00958736,-0.140184 0.00958736,-0.221056zm-4.58157 -0.510266l0 0c0,-0.307491 0.0760531,-0.587511 0.224235,-0.83569 0.152553,-0.255332 0.357713,-0.474401 0.615429,-0.65964 0.247384,-0.173665 0.548914,-0.312657 0.906577,-0.409475 0.357315,-0.0995993 0.719002,-0.148977 1.08824,-0.148977 0.41027,0 0.784326,0.0493774 1.11412,0.139439 0.333422,0.0919989 0.620198,0.22503 0.867582,0.3979 0.307094,0.217479 0.5433,0.50351 0.714979,0.85561 0.168102,0.353341 0.254934,0.804245 0.254934,1.34476 0,0.490744 -0.0848457,0.957196 -0.249768,1.39772 -0.166065,0.443353 -0.407488,0.807425 -0.730527,1.09902 -0.344549,0.309478 -0.759587,0.543698 -1.23841,0.706236 -0.481951,0.159707 -1.07667,0.242963 -1.7825,0.242963 -0.159309,0 -0.329398,-0.00834547 -0.507882,-0.0159458 -0.178434,-0.0158961 -0.348126,-0.0382501 -0.50505,-0.0673102l0 -0.766393 0.0617466 0c0.0987548,0.0386475 0.255332,0.0776924 0.468439,0.109932 0.208687,0.0350709 0.426166,0.0514141 0.643694,0.0514141 0.783481,0 1.4005,-0.169691 1.84664,-0.51583 0.442956,-0.343357 0.698288,-0.832511 0.756408,-1.47342 -0.317476,0.145003 -0.622185,0.250166 -0.909359,0.318668 -0.28921,0.0649258 -0.603855,0.09796 -0.946417,0.09796 -0.332229,0 -0.629785,-0.0238939 -0.90305,-0.0712843 -0.270831,-0.0485826 -0.544493,-0.140234 -0.816962,-0.282008 -0.325424,-0.159359 -0.562823,-0.366456 -0.72695,-0.615032 -0.164475,-0.250166 -0.246142,-0.549311 -0.246142,-0.900616zm12.9687 -5.08225l0 0 -0.218274 6.13343 -0.938071 0.589946 0.0824612 -5.79568 -3.58095 1.73909 -0.312707 -0.689893 4.50114 -2.34016 0.466403 0.363277z"/>
   <g>
    <path id="_181142752" class="fil1" d="M65.881 22.9457c-0.720592,-0.347778 -0.211518,-0.474798 -0.172871,-1.15277 0.0346238,-0.582345 -0.338588,-1.25237 -0.222695,-1.66383 0.314694,-1.10538 1.72995,-0.686713 2.5103,-0.116688 0.138594,0.100742 0.264472,0.374006 0.366853,0.646476 0.253345,0.671562 0.517419,1.61718 -0.251755,2.09601 -0.664806,0.415038 -1.60685,0.494718 -2.22983,0.190803z"/>
    <path id="_181142968" class="fil1" d="M57.5428 19.6818c-0.0223043,-0.0163432 -0.0458008,-0.0322394 -0.0657206,-0.04898 0.0262783,-0.0868327 0.0514141,-0.167307 0.0768976,-0.239386 0.256524,-0.0295072 2.64725,-0.87394 2.65406,-0.930918 0.724566,-0.330193 1.3854,-0.732912 1.74664,-1.45946 -1.59488,0.11793 -3.25752,0.856802 -4.81375,0.597894 -0.671215,-0.350907 -1.06077,-0.85402 -1.50532,-1.19221 0.00601073,-0.0342264 0.0123692,-0.0597596 0.015151,-0.0836535 -0.680752,-0.727348 -0.58473,-1.42241 0.377235,-1.50169 1.45385,0.7194 4.07965,0.193188 5.66618,-0.00158961 0.361687,-0.0677076 1.37904,-0.171678 1.70764,-0.407488 0.83569,-1.94743 1.11213,-4.04065 1.70367,-5.95658 0.840061,-1.28381 1.48217,-0.115148 2.1808,0.802209 0.0287124,0.129057 0.197609,0.306746 0.311912,0.616224 0.0246887,0.00317923 0.0454034,0.00794807 0.0816664,0.0159458 0.227812,0.673549 0.265664,0.965144 -0.441764,1.37621 -0.616224,0.857597 -1.06072,1.86854 -1.28461,2.9847 1.0938,0.109932 1.96258,-0.659243 3.1906,-0.382004 0.155335,0.643694 0.00158961,1.11611 -0.653232,1.4543 -1.00022,0.211518 -2.06377,0.35965 -3.18862,0.573155 -0.484783,0.969565 -1.19976,2.12432 -2.12551,2.78351 -0.135018,0.100394 -0.778712,0.454928 -0.92133,0.498344 -0.749255,0.219466 -1.45186,0.538532 -2.22024,0.566002 -2.12427,0.0692972 -2.12427,-0.0294575 -2.49237,-0.0645284z"/>
   </g>
   <g>
    <path id="_181142680" class="fil1" d="M33.3444 26.7573c-0.881093,-0.0518115 -1.91037,-0.687508 -2.53613,-1.09102 -0.00958736,-0.224285 -0.0255332,-0.454083 -0.0163432,-0.673996 1.2404,-2.00674 2.50031,-3.92193 3.47659,-6.11549 0.188816,-0.9337 0.511061,-1.959 0.744486,-2.89548 0.015151,-0.0219069 0.0438137,-0.0513644 0.0761028,-0.0665154 -0.015151,-0.0330342 -0.0267254,-0.0541462 -0.0350709,-0.0760531 0.313104,-0.52502 0.463671,-0.694314 1.07269,-0.269688 0.218671,0.471221 -0.444148,1.32643 -0.537339,1.88409 0.00198702,0.995049 -0.0370579,2.02114 -0.130249,3.07113 -0.0768976,0.211468 -0.0768976,0.211468 -0.277239,1.35589 -0.332229,0.546082 -0.581948,1.76139 -0.620595,2.44055 -0.427408,0.539326 -0.278431,1.6152 -0.814181,2.21831 -0.145003,0.0673102 -0.275252,0.143363 -0.402719,0.218274z"/>
    <path id="_181142032" class="fil1" d="M41.3006 16.5007c-1.1018,0.377583 -1.68494,-0.193983 -2.52222,-0.589946 -0.132236,-0.282008 -0.0258809,-0.521393 -0.0796794,-0.725361 0.246589,-0.170884 0.246589,-0.170884 0.370827,-0.340972 0.430636,-0.237399 0.603507,-0.282008 1.08546,-0.504255 0.566052,-0.38717 1.73631,-2.11752 2.45769,-1.85702 0.598291,1.2854 -0.317078,3.18266 -1.31208,4.01755z"/>
    <path id="_181142584" class="fil1" d="M32.149 17.6973c-0.55567,-0.201533 -1.29693,-1.84147 -1.53716,-2.35968 -0.0616969,-1.05913 0.867582,-1.46423 1.89249,-1.16707 0.948404,0.579961 1.50964,0.750844 1.23081,1.97092 -0.485528,0.932855 -0.801017,1.10816 -1.58614,1.55583z"/>
    <path id="_181142344" class="fil1" d="M39.8678 13.7228c-0.313502,-0.464068 -0.0394423,-1.83074 -0.34137,-2.01836 -0.249768,0.145797 -0.480411,0.350162 -0.75005,0.47445 -0.777967,-0.0589648 -1.80684,-0.575192 -1.78613,-1.29141 0.268496,-0.735296 0.136657,-0.525368 0.871556,-0.869916 0.589151,-0.600675 1.18704,-1.19261 1.79209,-1.79289 1.12927,-0.69948 1.9514,-0.256524 2.49351,0.907769 0.0892171,0.857597 -0.18678,1.66502 -0.451699,2.47125 -0.506292,0.606637 -0.938469,1.22564 -1.37502,1.84187 -0.162538,0.0892171 -0.308733,0.1836 -0.452891,0.277239z"/>
    <path id="_181142272" class="fil1" d="M31.8511 12.8923c-0.342959,-0.122698 -0.283995,-0.288813 -0.237399,-0.568834 -0.229004,-0.489104 -0.689495,-0.777123 -0.908564,-1.24795 -0.187624,-0.949596 -0.482796,-1.20612 0.0824612,-1.91633 0.668383,0.0254835 3.05117,0.260895 3.0149,1.56021 -0.269638,0.90146 -1.19936,1.76979 -1.9514,2.1729z"/>
   </g>
   <path id="_182567400" class="fil1" d="M19.6391 45.6368c-1.03047,0.711799 -3.51086,0.242963 -3.18226,-1.24238 -0.143761,-0.142618 -0.220261,-0.405501 -0.170089,-0.575589 -0.0322394,-0.0223043 -0.0561333,-0.0330838 -0.0760531,-0.0442111 -0.262088,-1.55469 -1.10339,-3.03527 -1.56105,-4.50313 -0.240976,-0.461634 -0.528199,-0.818949 -0.344549,-1.324 0.343357,-0.0864353 0.721735,0.284789 1.00856,0.569976 0.152553,-0.0342264 0.31986,-0.41027 0.392734,-0.654424 -0.112714,-1.02928 -0.0262783,-2.21632 -0.171678,-3.26671 -0.266062,-0.227066 -0.528149,-0.461684 -0.776725,-0.697096 -0.203173,0.530186 -0.876722,2.25377 -1.46423,1.32286 0.161296,-0.705441 0.262088,-1.88131 -0.135862,-2.5943 -0.509074,-0.558054 -1.24199,-0.943635 -1.46821,-1.55226 0.102729,-0.847264 1.4009,-1.04562 2.16053,-0.70867 0.615379,0.0522089 0.605444,-1.10255 1.30011,0.808219 0.0167406,0.313104 0.315886,0.50669 0.657653,0.682342 0.0561829,-0.0673102 0.111124,-0.135415 0.164525,-0.20516 -0.015151,-0.811746 -0.030302,-1.69965 0.0406345,-2.56718 -0.759637,-0.766393 -1.40055,-1.4077 -1.84907,-2.33942 0,-0.892221 1.01253,-1.40686 1.8909,-1.67178 0.284789,-0.477977 0.289558,-0.891873 0.271625,-1.50606 0.0597596,-0.195175 0.0597596,-0.195175 0.27088,-0.500728 0.302722,0.0238939 0.55249,0.133081 0.892668,0.333422 0.696648,0.906577 -0.769572,3.6662 0.607431,3.8869 0.277636,-0.465658 -0.106355,-0.955607 -0.317873,-1.34079 0.0796794,-0.686713 1.13841,-1.54511 1.88568,-1.80764 1.10339,-0.0963704 1.03688,0.526212 1.04443,1.47581 0.0497748,0.131491 0.101189,0.264124 0.158514,0.383594 1.40015,1.02093 1.40015,1.02093 3.34877,2.33261 0.369238,0.581948 0.515432,0.914972 0.662819,1.60924 0.0215095,0.00799775 0.0426215,0.022354 0.0625414,0.0370579 -0.017138,0.0314942 -0.0310968,0.0514141 -0.0446086,0.0713339 0.264075,0.545287 0.274407,1.44431 -0.381607,1.52717 -1.59294,-1.08268 -3.17828,-2.30593 -4.73094,-3.29418 -0.0163432,0.032289 -0.0266757,0.0708869 -0.0279176,0.0988045 0.694314,0.648463 1.61564,2.41944 1.63914,3.41245 -0.380812,0.636541 -1.08705,0.899424 -1.72558,0.722976 -0.114303,-0.170089 -0.0688998,-0.315489 -0.0919989,-0.517419 -0.470824,-0.827345 -1.84028,-1.61843 -2.53335,-2.09124 -0.266906,0.54489 0.276444,2.15298 0.444148,2.81257 0.0278679,0.388412 0.0513644,0.780749 0.0840012,1.15873 0.470824,0.582792 0.957594,1.11655 1.48301,1.70446 0.190009,0.330242 0.388363,0.664806 0.59228,1.0026 -0.0166909,0.0298549 -0.0326368,0.0513644 -0.0414293,0.0736687 0.228656,0.497549 0.736935,1.95463 -0.211071,1.96059 -0.0948304,-0.0557855 -0.177292,-0.107945 -0.258114,-0.168897 -0.297953,-0.754024 -0.872748,-1.57059 -1.49652,-2.01593 -0.221503,0.744486 0.0609021,1.53154 -0.31986,2.16411 -0.311515,0.302722 -0.664806,0.580756 -0.940456,0.730925 -0.0318916,-0.0187276 -0.0494271,-0.0314446 -0.0757054,-0.0414293 -0.193188,0.0840509 -0.430984,0.140631 -0.455275,0.256524 0.267254,0.346536 0.546082,0.700672 0.825755,1.04443 0.882683,1.53279 1.85736,2.8771 3.01932,4.27765 0.0724765,0.387568 0.0521592,0.491141 -0.0565803,0.769572z"/>
   <path id="_182566800" class="fil1" d="M12.8958 39.2437c-0.403514,0.00198702 -0.605047,-0.476388 -0.914575,-0.706236 -1.10414,-0.315091 -1.93545,-0.538532 -2.29913,-1.63512 0.0473904,-0.100791 0.102778,-0.197559 0.159707,-0.293582 0.577179,-0.21271 1.64828,-0.344946 2.36808,-0.376838 1.37343,0.303567 0.904987,2.02234 0.685919,3.01177z"/>
   <path id="_182568216" class="fil1" d="M10.0099 35.9945c-0.234617,0.173665 -0.28002,0.133875 -0.389555,0.123096 -0.148182,-0.258114 -0.203173,-0.450904 -0.458455,-0.556464 -1.22008,-0.031842 -2.48159,-0.944827 -2.25616,-2.18761 0.221105,-0.253742 0.461286,-0.0999967 0.927739,0.0378527 1.02808,-0.20516 2.56201,-0.846072 2.62535,0.804196 -0.108342,0.598291 -0.293582,1.20895 -0.448917,1.77893z"/>
   <path id="_182568240" class="fil0" d="M72.9955 37.5603l-12.0793 -0.00879255c-3.52164,0 -5.33162,3.4519 -6.66684,6.5808l-2.03625 -4.58281 3.42085 -1.26191c-2.00197,-1.89561 -8.23584,-2.92886 -9.05916,-0.0768479l-1.46945 5.91595c-1.1631,-2.66638 -2.79941,-6.56481 -6.49313,-6.5664l-12.2557 0.00158961c1.59329,2.81933 3.1149,3.83191 8.75366,3.59049l0.736886 1.94027 -6.18007 0.0322394c1.82478,3.36432 2.87834,3.50411 7.85503,3.36432l1.05476 2.32302 -4.86198 0.175255c1.04562,2.37806 2.14061,3.39775 6.3143,3.20695l0.814578 2.06098 -3.86892 0.020665c1.45306,2.39595 2.17007,3.49457 5.2344,3.22568l0.824563 2.24339 -2.6792 0c1.15878,2.58754 2.50508,2.69549 4.15177,2.95321 1.48063,0.228656 1.69209,3.0006 -0.0330342,3.89128l5.20057 8.44016 5.20415 -8.44214c-1.73114,-0.890681 -1.51485,-3.66143 -0.0342761,-3.89048 1.64788,-0.258511 2.99424,-0.364469 4.14979,-2.95519l-2.67477 0 0.820936 -2.24379c3.06155,0.268893 3.77896,-0.829332 5.23366,-3.2221l-3.86579 -0.0230991 0.811796 -2.06252c4.17368,0.194777 5.27106,-0.828537 6.31469,-3.20576l-4.86079 -0.172473 1.05396 -2.32302c4.97514,0.1378 6.02831,-0.000794807 7.85622,-3.37028l-6.18484 -0.0262783 0.742499 -1.94504c5.63195,0.24336 7.15634,-0.771162 8.75445,-3.58731z"/>
   <path id="_182567904" class="fil0" d="M91.3927 31.7782l0.0442111 -0.106355c0.174907,-0.433369 0.164525,-0.612598 0.124685,-0.687111 -0.0525566,-0.102331 -0.24336,-0.155335 -0.546082,-0.235015 -0.0796794,-0.0199199 -0.171678,-0.0346238 -0.277239,-0.0477878l-0.167307 -0.0270731 -0.0549907 -0.120711c-0.0589151,-0.0609518 -0.11788,-0.124685 -0.193585,-0.180819l-0.233028 -0.0788846 -0.0537488 -0.0270731 0.301927 -0.229053c0.214697,-0.163333 0.457262,-0.238194 0.726156,-0.327411l0.0258809 -0.0692972 0.11793 0.046993c0.428202,-0.370082 0.71021,-0.91219 0.748063,-1.47462 -0.130249,-0.179279 -0.348573,-0.260895 -0.679163,-0.260895 -0.425421,0.00675586 -0.940853,0.169691 -1.40134,0.311465 -0.282405,0.0880249 -0.631325,0.199596 -0.938419,0.258908l-0.10715 -0.0521592c-0.773993,-0.370827 -0.804245,-0.386376 -2.41944,-1.23443 -0.115148,0.0761028 -0.207941,0.190009 -0.259306,0.323039 -0.0960226,0.23263 -0.0820638,0.493526 0.0438137,0.743294l0.150566 0.117085 0.0127169 0.013164 0.00158961 0.00556365 -0.380812 0.202378c-0.0884223,0.0485826 -0.108342,0.0589648 -0.09796,0.0589648l0.00516625 0 -0.111124 0.102331c0.0119718,0.0402371 0.0358657,0.114353 0.0947807,0.217529l0.0267254 0.171281c-0.00601073,0.148927 -0.0334813,0.211468 -0.156577,0.353689l-0.0458008 0.18365 -0.00953769 0.0219069 -0.00278182 0.00278182 -0.234617 -0.188022c-0.307938,-0.242963 -0.336998,-0.267701 -0.566847,-0.480362 -0.0605544,-0.00958736 -0.121904,-0.0183302 -0.193585,-0.0183302 -0.174063,0.00675586 -0.316681,0.0609518 -0.380017,0.148977 -0.0657206,0.0931911 -0.0569281,0.216684 0.0135614,0.386773l-0.0238939 0.0892171c-0.0526063,0.231438 -0.247781,0.624569 -0.965542,0.634554l-0.370032 -0.00680554c-0.0701417,0 -0.141029,0.00397404 -0.256921,0.0577725 -0.0028315,0.487167 0.209879,0.52338 0.724516,0.605047 0.19279,0.0291098 0.402321,0.0613492 0.67797,0.12707 0.0481852,-0.0187276 0.0955756,-0.0258809 0.143413,-0.0258809 0.109137,0 0.194777,0.0438137 0.299146,0.0939859l0.383594 0.150566 0.13462 0.0378527 0.0645284 0.0290601 -0.468042 0.228259c-0.177242,0.0880249 -0.296761,0.151758 -0.470824,0.336203 -0.0322394,0.133031 -0.101586,0.265664 -0.211518,0.394721l-0.017138 0.106355 -0.19279 -0.0442111c-0.344946,-0.0856405 -0.691482,-0.175652 -1.03921,-0.262485l-0.533365 -0.140234c-0.948006,-0.248129 -2.12546,-0.559246 -3.23283,-0.751242 -0.264869,-0.0939859 -0.517419,-0.142569 -0.773943,-0.189214l-0.524225 -0.0616969 -0.0246887 0.150169c0.130249,0.100742 0.301133,0.227812 0.566449,0.395913l0.0346238 0.0872301c0.150169,0.36129 0.39636,0.818949 0.975526,1.14 0.378775,0.0653232 0.778712,0.111968 1.25152,0.166115 1.38182,0.160551 2.81064,0.322642 3.93588,1.16514l0.2908 0.151758 0.0728739 -0.00481852 0.0135614 0.00481852 -0.415883 0.208289c-0.102778,0.0545933 -0.200341,0.111968 -0.327808,0.226669l-0.127865 -0.0266757c-1.33359,-0.293979 -1.33359,-0.293979 -1.81122,-0.447327 -0.479169,-0.307541 -0.714581,-0.405501 -0.967529,-0.405501 -0.193585,0.00317923 -0.419807,0.0868327 -0.801414,0.311465 -0.0246887,0.0115744 -0.0370579,0.017138 -0.060157,0.0287124l-0.0195225 0.017138c-0.0115744,0.00675586 -0.0203173,0.0123195 -0.0342761,0.0219069l-0.135018 -0.0530037c-0.146195,-0.0525566 -0.15454,-0.0553384 -0.55249,-0.113111 -0.369238,-0.129454 -0.75005,-0.253742 -1.15833,-0.38876 -1.14835,-0.374056 -2.33937,-0.765201 -3.3288,-1.41928 -0.293184,-0.24336 -0.485975,-0.469234 -0.646476,-0.657604 -0.0522089,-0.0605544 -0.0892668,-0.100394 -0.11793,-0.100394 -0.00357663,0 -0.0111273,0.00119221 -0.0139588,0.00278182l-0.0951782 -0.124685c-0.0761028,0.0223043 -0.196764,0.132236 -0.395963,0.35056 -0.209879,0.654424 0.381607,2.21468 0.911395,2.67035 0.373609,0.163333 0.769572,0.24023 1.19142,0.317476 0.700225,0.13467 1.424,0.269688 2.11429,0.84329l0.186035 0.0465956 0.0143562 0.00635846 0.00119221 0.00278182 -0.176845 0.237796c-0.227066,0.297159 -0.490744,0.544145 -0.790684,0.816615l-0.135068 0.114701c-0.0896145,0.0712843 -0.176447,0.142618 -0.235809,0.222248l-0.134223 0.0115744c-0.095973,0.0167406 -0.185637,0.0270731 -0.30312,0.0310472 -0.513843,0 -0.956401,-0.250513 -1.34476,-0.466055 -0.127467,-0.0692972 -0.25255,-0.138992 -0.432176,-0.181613l-0.0712843 0.132236c0.534557,0.919741 1.26985,1.76422 2.24215,2.57041l0.0808716 0.133875c0.118724,0.0645284 0.237399,0.0939859 0.362482,0.0939859l0.017138 0c0.696251,-0.0139588 1.45509,-0.971503 2.01116,-1.67774 0.119072,-0.153 0.231835,-0.291595 0.356471,-0.428202l0.137452 -0.101984c0.527355,-0.388363 0.564412,-0.419857 0.544493,-0.425421l0.130646 0.0354683c0.444546,0.121456 0.72854,0.291148 1.15197,0.528944 0.414691,-0.180421 0.839267,-0.602265 0.801464,-1.05317l-0.171678 -0.15613c-0.248973,-0.230246 -0.495562,-0.460094 -0.754073,-0.687111l-0.133031 -0.0267254 0.0856405 -0.213902c0.0940356,-0.223838 0.228656,-0.356074 0.409872,-0.538134l0.0179328 -0.0876275 0.17605 0.0410319c0.748857,0.169294 1.41848,0.37803 2.23902,0.63058l0.717761 0.235412 0.176894 0.131839c0.411859,0.309081 0.70862,0.530136 1.17547,0.530136 0.0748609,0 0.141774,-0.00755067 0.262088,-0.0454034 0.442559,-0.453288 0.692277,-0.756805 0.868327,-1.1093l0.000794807 -0.00124189c0.00442111,-0.0111273 0.011177,-0.0178832 0.015151,-0.0254835 -0.137005,-0.201136 -0.197559,-0.260498 -0.22503,-0.262088l0.131839 -0.15454c0.0398397,-0.0498245 0.0848457,-0.0868327 0.210723,-0.163333 1.21566,-0.384786 2.53176,-0.863558 3.49968,-1.21009 0.581948,-0.366456 0.6429,-0.403514 0.435356,-0.945671 -0.0350212,-0.0884223 -0.0792323,-0.197559 -0.151361,-0.344549zm-4.72572 0.720592l0 0 0.197559 -0.178832c0.270036,-0.248576 0.391144,-0.370877 0.41782,-0.490744 -0.0119221,-0.0482349 -0.0665154,-0.110727 -0.189959,-0.197559l-0.0605544 -0.0103822c-0.0382501,0.00397404 -0.0761028,0.0103822 -0.130249,0.0103822 -0.216734,0 -0.350162,-0.101586 -0.425023,-0.19279l-0.0896145 -0.0701417 0.00675586 -0.103573 0.0768479 -0.246142 -0.0438137 -0.0167406 0.265317 -0.0856405c0.889439,-0.29239 0.889439,-0.29239 1.03683,-0.37962l0.0657206 -0.115098 0.172871 0.144208c0.188022,0.15772 0.809014,0.727348 0.90464,1.44749l-0.0864353 0.103176c-0.476437,0.565257 -1.11695,0.665999 -1.74073,0.686713l-0.166909 0.0382501 -0.0864353 -0.261293 -0.115893 -0.0741158 -0.00874288 -0.00755067z"/>
   <path id="_182567952" class="fil0" d="M81.5086 30.3685c-0.270483,0 -0.521841,-0.0816168 -0.750844,-0.246539 -0.1454,-0.576782 0.283995,-1.19539 0.59546,-1.65067 0.108789,-0.152553 0.190803,-0.272072 0.253345,-0.37962l0.0514141 -0.131839 0.10556 -0.198751c0.125828,-0.244999 0.247731,-0.487167 0.365264,-0.75606 0.045006,-0.140979 0.0800271,-0.273215 0.113906,-0.403464 0.190803,-0.750894 0.334614,-1.2237 0.713389,-1.35793 0.29239,0.0485826 0.43779,0.0904093 0.508677,0.196764 0.0716817,0.111124 0.0465956,0.264124 -0.0119221,0.546927l-0.0506193 0.105163c0.0418267,0.101537 0.0589648,0.226222 0.0768976,0.355279 0.0836535,0.445738 0.10556,0.90305 0.0573255,1.32564l-0.0219069 0.168897c-0.0254835,0.162538 -0.0677076,0.301133 -0.115893,0.443751 -0.173665,0.538134 -0.368443,1.14437 -0.760829,1.49851l-0.160501 0.14699 -0.105958 0.0645284c-0.267254,0.173665 -0.558451,0.267651 -0.837677,0.27242l-0.0250861 0z"/>
   <path id="_182566656" class="fil0" d="M81.5086 30.3442l0.0250861 0c0.275252,-0.00596105 0.560836,-0.100742 0.822923,-0.270036l0.102778 -0.0605544 0.160551 -0.147387c0.38717,-0.351305 0.580358,-0.95198 0.752037,-1.48574 0.0473904,-0.142618 0.0927937,-0.28002 0.117085,-0.441764l0.0223043 -0.166909c0.0514141,-0.461634 0.0199199,-0.915767 -0.0585177,-1.32127 -0.0163432,-0.126225 -0.0334813,-0.254487 -0.0541959,-0.374006l-0.0207147 0.00397404 0.050967 -0.0951782c0.0530037,-0.270483 0.0824612,-0.428997 0.015151,-0.528199 -0.066118,-0.0963704 -0.202328,-0.140234 -0.481156,-0.191598 -0.364469,0.133826 -0.50351,0.587959 -0.680752,1.29698 -0.0394423,0.14535 -0.0780898,0.291545 -0.128659,0.450507 -0.11793,0.274457 -0.242168,0.514638 -0.366456,0.758792l-0.10715 0.198354 -0.0506193 0.136657c-0.0605047,0.10715 -0.14535,0.227812 -0.251308,0.377583 -0.309925,0.451351 -0.738127,1.06395 -0.605097,1.61763 0.223092,0.160154 0.469234,0.242168 0.735743,0.242168z"/>
   <path id="_182566464" class="fil0" d="M78.845 29.685c-0.133428,0 -0.30153,-0.0741158 -0.608226,-0.268893 -0.406693,-0.92292 1.05396,-1.96297 1.22207,-2.07927 0.239386,0.0557358 0.372814,0.182011 0.454878,0.408282 0.166115,0.46526 0.0461982,1.12485 -0.268844,1.50487 -0.444546,0.305107 -0.627003,0.430189 -0.793863,0.435008l-0.00601073 0z"/>
   <path id="_182568144" class="fil0" d="M78.845 29.6575l0.00601073 0c0.158514,-0.00357663 0.344549,-0.12707 0.773149,-0.424626 0.311068,-0.371225 0.42701,-1.02088 0.264869,-1.47457 -0.0768976,-0.217529 -0.201533,-0.345791 -0.414244,-0.402321 -0.167307,0.117482 -1.61127,1.14795 -1.22127,2.03863 0.299146,0.190803 0.465211,0.262882 0.591486,0.262882z"/>
  </g>
 </g>
</svg>
